<svg width="72" height="72" viewBox="0 0 72 72" fill="none" xmlns="http://www.w3.org/2000/svg">
<g clip-path="url(#clip0_2574_77999)">
<rect width="72" height="72" rx="36" fill="#893951"/>
<path d="M24.3437 52V20H36.9688C39.3854 20 41.4479 20.4323 43.1563 21.2969C44.875 22.151 46.1823 23.3646 47.0781 24.9375C47.9844 26.5 48.4375 28.3385 48.4375 30.4531C48.4375 32.5781 47.9792 34.4062 47.0625 35.9375C46.1458 37.4583 44.8177 38.625 43.0781 39.4375C41.349 40.25 39.2552 40.6562 36.7969 40.6562H28.3438V35.2187H35.7031C36.9948 35.2187 38.0677 35.0417 38.9219 34.6875C39.776 34.3333 40.4115 33.8021 40.8281 33.0938C41.2552 32.3854 41.4688 31.5052 41.4688 30.4531C41.4688 29.3906 41.2552 28.4948 40.8281 27.7656C40.4115 27.0365 39.7708 26.4844 38.9063 26.1094C38.0521 25.724 36.974 25.5312 35.6719 25.5312H31.1094V52H24.3437ZM41.625 37.4375L49.5781 52H42.1094L34.3281 37.4375H41.625Z" fill="white"/>
</g>
<rect x="1" y="1" width="70" height="70" rx="35" stroke="white" stroke-width="2"/>
<defs>
<clipPath id="clip0_2574_77999">
<rect width="72" height="72" rx="36" fill="white"/>
</clipPath>
</defs>
</svg>
